<svg width="140" height="42" viewBox="0 0 140 42" fill="none" xmlns="http://www.w3.org/2000/svg">
<g clip-path="url(#clip0_0_580)">
<path d="M8.74475 41.0939V40.8467L10.1069 40.2131V31.8223L8.74475 31.1888V30.9415H17.0413V33.5994H16.7859L15.7179 31.7837H12.1268V35.4614H14.5725L15.447 34.1557H15.7024V37.5244H15.447L14.5725 36.2495H12.1268V40.2131L13.7134 40.8467V41.0939H8.74475Z" fill="#29323F"/>
<path d="M28.1714 41.0939V40.8467L29.5335 40.2131V31.8223L28.1714 31.1888V30.9415H33.1555C34.2854 30.9415 35.1832 31.1656 35.8333 31.6137C36.4834 32.0618 36.8085 32.6722 36.8085 33.4526C36.8085 34.0243 36.6072 34.5265 36.2048 34.9515C35.8023 35.3764 35.2683 35.7087 34.6105 35.9405L37.6366 40.2595L38.7665 40.8467V41.0939H35.7404L32.6834 36.404H31.5535V40.2054L32.7685 40.8544V41.1016H28.1791L28.1714 41.0939ZM32.3738 31.7914H31.5457V35.6237H32.4667C33.1323 35.6237 33.674 35.446 34.092 35.0828C34.5099 34.7274 34.7111 34.2561 34.7111 33.6844C34.7111 33.1126 34.5099 32.6259 34.0997 32.2936C33.6895 31.9614 33.1168 31.7914 32.3661 31.7914H32.3738Z" fill="#29323F"/>
<path d="M48.092 41.0939V40.8467L49.4542 40.2131V31.8223L48.092 31.1888V30.9415H56.5511V33.5994H56.2957L55.1812 31.7837H51.4741V35.4305H54.0745L54.9491 34.1248H55.2045V37.5553H54.9491L54.0745 36.2804H51.4741V40.244H55.5837L56.7446 38.0884H57V41.0862H48.092V41.0939Z" fill="#29323F"/>
<path d="M67.3179 41.0939V40.8467L68.6568 40.2131V31.8223L67.3179 31.1888V30.9415H72.0388V31.1888L70.6999 31.8223V40.2131L72.0388 40.8467V41.0939H67.3179Z" fill="#29323F"/>
<path d="M87.347 41.2484C86.573 41.2484 85.8455 41.1248 85.1799 40.8776C84.5144 40.6303 83.9262 40.2826 83.4309 39.8345C82.9355 39.3864 82.5486 38.8533 82.27 38.2506C81.9914 37.648 81.8521 36.9835 81.8521 36.265C81.8521 35.4769 82.0146 34.7506 82.3319 34.0784C82.6492 33.4139 83.0826 32.8345 83.6321 32.34C84.1816 31.8455 84.8162 31.4669 85.536 31.1965C86.2557 30.9261 87.0064 30.787 87.8113 30.787C88.384 30.787 88.8716 30.8179 89.274 30.8797C89.6765 30.9415 90.0402 31.0265 90.3575 31.1424C90.6749 31.2583 90.9922 31.3819 91.3017 31.5287L91.4333 34.1557H91.1547L89.8313 32.1545C89.4675 31.9305 89.1347 31.7682 88.8406 31.6755C88.5465 31.5828 88.2138 31.5364 87.8423 31.5364C87.107 31.5364 86.4492 31.7141 85.8533 32.0773C85.2573 32.4327 84.793 32.9349 84.4447 33.5685C84.0964 34.202 83.9262 34.936 83.9262 35.7627C83.9262 36.7285 84.1042 37.5552 84.4525 38.2352C84.8007 38.9228 85.2728 39.4482 85.861 39.8191C86.4492 40.1899 87.107 40.3754 87.8268 40.3754C88.0744 40.3754 88.3376 40.3599 88.6007 40.3367C88.8716 40.3135 89.1425 40.2595 89.4056 40.1899V37.4548L87.9661 36.7749V36.5276H92.6097V36.7749L91.4256 37.4857V39.9427C91.1005 40.2131 90.7058 40.4372 90.2415 40.6303C89.7771 40.8235 89.2973 40.9703 88.7942 41.0785C88.2911 41.1866 87.8113 41.2407 87.347 41.2407V41.2484Z" fill="#29323F"/>
<path d="M101.184 41.0939V40.8467L102.538 40.2131V31.8223L101.184 31.1888V30.9415H105.843V31.1888L104.566 31.8223V35.4382H109.465V31.8223L108.188 31.1888V30.9415H112.832V31.1888L111.508 31.8223V40.2131L112.832 40.8467V41.0939H108.188V40.8467L109.465 40.2131V36.2804H104.566V40.2131L105.843 40.8467V41.0939H101.184Z" fill="#29323F"/>
<path d="M123.503 41.0939V40.8467L125.182 40.2131V31.7914H122.737L121.522 34.202H121.266V30.9415H131.134V34.202H130.879L129.664 31.7914H127.226V40.2131L128.89 40.8467V41.0939H123.503Z" fill="#29323F"/>
<path d="M139.718 24.6324H0V26.5377H139.718V24.6324Z" fill="#29323F"/>
<path d="M11.7181 20.7118C9.57428 20.7118 7.68588 20.2868 6.07611 19.4447C4.45859 18.6025 3.20482 17.459 2.3148 16.0142C1.42478 14.5694 0.983643 12.9391 0.983643 11.108C0.983643 9.63224 1.29321 8.27241 1.90462 7.01302C2.51603 5.75363 3.35187 4.65649 4.40442 3.69842C5.45696 2.74808 6.65656 2.00636 7.99546 1.47324C9.33436 0.940124 10.7429 0.677429 12.2134 0.677429C13.2969 0.677429 14.1946 0.73924 14.9144 0.855135C15.6342 0.97103 16.2765 1.14101 16.8492 1.35735C17.4219 1.57368 17.9946 1.82093 18.5674 2.09135L18.9079 7.60022H18.3584L15.4407 3.03396C14.9299 2.71718 14.45 2.49312 14.0012 2.35404C13.5523 2.21497 13.0105 2.14543 12.3759 2.14543C11.1299 2.14543 10.0077 2.50084 9.01704 3.21939C8.02641 3.93794 7.24474 4.95009 6.67203 6.25584C6.09933 7.56159 5.81297 9.07595 5.81297 10.8066C5.81297 12.5373 6.09159 13.9899 6.64108 15.2416C7.19057 16.4855 7.94128 17.4513 8.89322 18.1235C9.84515 18.8034 10.9132 19.1433 12.0973 19.1433C12.8557 19.1433 13.5368 19.0506 14.1405 18.8652C14.7441 18.6798 15.3246 18.4403 15.8741 18.1467L18.637 14.1985H19.1555L18.7299 19.1743C17.894 19.6456 16.8879 20.0164 15.7115 20.2946C14.5352 20.5727 13.2118 20.7041 11.7413 20.7041L11.7181 20.7118Z" fill="#29323F"/>
<path d="M34.3941 20.7118C32.8772 20.7118 31.4764 20.4646 30.1916 19.9624C28.8992 19.4602 27.7847 18.7648 26.8328 17.8685C25.8808 16.9723 25.1379 15.9215 24.6116 14.7007C24.0776 13.48 23.8145 12.151 23.8145 10.6985C23.8145 9.24595 24.0776 7.9093 24.6116 6.69626C25.1456 5.4755 25.8808 4.42472 26.8328 3.52847C27.7847 2.63222 28.9069 1.93685 30.1916 1.43463C31.4764 0.932423 32.8772 0.685181 34.3941 0.685181C35.911 0.685181 37.335 0.932423 38.6275 1.43463C39.92 1.93685 41.0344 2.63222 41.9864 3.52847C42.9383 4.42472 43.6813 5.4755 44.2075 6.69626C44.7415 7.91702 45.0047 9.24595 45.0047 10.6985C45.0047 12.151 44.7415 13.4877 44.2075 14.7007C43.6735 15.9215 42.9383 16.9723 41.9864 17.8685C41.0344 18.7648 39.92 19.4602 38.6275 19.9624C37.335 20.4646 35.9265 20.7118 34.3941 20.7118ZM34.8894 19.1743C35.911 19.1743 36.8165 18.8575 37.6059 18.2317C38.3953 17.6058 39.0067 16.7173 39.4479 15.5815C39.889 14.4458 40.1057 13.1091 40.1057 11.5793C40.1057 9.69408 39.8348 8.04837 39.2931 6.63445C38.7513 5.22053 38.0161 4.1234 37.1028 3.35076C36.1819 2.57813 35.1525 2.19181 34.0071 2.19181C32.9855 2.19181 32.0723 2.50087 31.2751 3.11897C30.478 3.73708 29.8511 4.61788 29.3868 5.75365C28.9224 6.88942 28.698 8.22608 28.698 9.75589C28.698 11.6411 28.9766 13.2868 29.5261 14.7007C30.0756 16.1147 30.8263 17.2118 31.7627 17.9999C32.6992 18.788 33.744 19.1743 34.8894 19.1743Z" fill="#29323F"/>
<path d="M48.4794 20.4105V19.9392L51.0876 18.7339V2.65537L48.4794 1.45007V0.97876H58.9662C61.11 0.97876 62.8049 1.40371 64.0432 2.26133C65.2815 3.11895 65.9006 4.28563 65.9006 5.77681C65.9006 6.85849 65.5214 7.78565 64.7629 8.55829C64.0045 9.33092 63.0138 9.94902 61.791 10.3972L67.4639 18.757L69.6696 19.9314V20.4027H63.0138L57.3409 11.3938H55.7157V18.6952L58.0142 19.9314V20.4027H48.4717L48.4794 20.4105ZM56.9462 2.60129H55.7157V9.96448H57.1242C58.3935 9.96448 59.3918 9.62452 60.1271 8.93688C60.8623 8.24923 61.2338 7.36071 61.2338 6.25584C61.2338 5.09689 60.8701 4.20064 60.1426 3.55935C59.4151 2.91807 58.347 2.60129 56.9385 2.60129H56.9462Z" fill="#29323F"/>
<path d="M75.0332 20.4105V19.9392L78.2837 18.7339V2.60129H73.8955L71.4422 7.46115H70.9546V0.97876H90.2487V7.45342H89.7611L87.3077 2.59356H82.9196V18.7339L86.1701 19.9392V20.4105H75.0332Z" fill="#29323F"/>
<path d="M94.2346 20.4105V19.9392L96.8428 18.7339V2.65537L94.2346 1.45007V0.97876H110.952V6.07041H110.464L108.196 2.59356H101.479V9.57043H106.2L107.918 7.0362H108.405V13.6654H107.918L106.2 11.193H101.479V18.7879H108.932L111.323 14.3994H111.811V20.4027H94.2346V20.4105Z" fill="#29323F"/>
<path d="M116.199 20.4105V19.9392L118.807 18.7339V2.68628L116.199 1.45007V0.97876H122.027L133.93 13.874V2.62447L130.432 1.45007V0.97876H138.651V1.45007L136.074 2.65537V20.5573H134.17L120.951 6.36401V18.7339L124.449 19.9392V20.4105H116.199Z" fill="#29323F"/>
</g>
<defs>
<clipPath id="clip0_0_580">
<rect width="140" height="40.6452" fill="white" transform="translate(0 0.677429)"/>
</clipPath>
</defs>
</svg>
