<svg width="140" height="41" viewBox="0 0 140 41" fill="none" xmlns="http://www.w3.org/2000/svg">
<g clip-path="url(#clip0_6442_718)">
<path d="M8.74487 40.4166V40.1693L10.107 39.5358V31.145L8.74487 30.5114V30.2642H17.0414V32.922H16.786L15.718 31.1063H12.127V34.7841H14.5726L15.4471 33.4783H15.7025V36.847H15.4471L14.5726 35.5721H12.127V39.5358L13.7135 40.1693V40.4166H8.74487Z" fill="white"/>
<path d="M28.1714 40.4166V40.1693L29.5335 39.5358V31.145L28.1714 30.5114V30.2642H33.1555C34.2854 30.2642 35.1832 30.4882 35.8333 30.9363C36.4834 31.3845 36.8085 31.9949 36.8085 32.7752C36.8085 33.347 36.6072 33.8492 36.2048 34.2741C35.8023 34.6991 35.2683 35.0313 34.6105 35.2631L37.6366 39.5821L38.7665 40.1693V40.4166H35.7404L32.6834 35.7267H31.5535V39.528L32.7685 40.177V40.4243H28.1791L28.1714 40.4166ZM32.3738 31.1141H31.5457V34.9463H32.4667C33.1323 34.9463 33.674 34.7686 34.092 34.4055C34.5099 34.0501 34.7111 33.5788 34.7111 33.007C34.7111 32.4353 34.5099 31.9485 34.0997 31.6163C33.6895 31.284 33.1168 31.1141 32.3661 31.1141H32.3738Z" fill="white"/>
<path d="M48.092 40.4166V40.1693L49.4542 39.5358V31.145L48.092 30.5114V30.2642H56.5511V32.922H56.2957L55.1812 31.1063H51.4741V34.7532H54.0745L54.9491 33.4474H55.2045V36.8779H54.9491L54.0745 35.6031H51.4741V39.5667H55.5837L56.7446 37.411H57V40.4088H48.092V40.4166Z" fill="white"/>
<path d="M67.3179 40.4166V40.1693L68.6568 39.5358V31.145L67.3179 30.5114V30.2642H72.0388V30.5114L70.6999 31.145V39.5358L72.0388 40.1693V40.4166H67.3179Z" fill="white"/>
<path d="M87.347 40.5711C86.573 40.5711 85.8455 40.4474 85.1799 40.2002C84.5144 39.953 83.9262 39.6053 83.4309 39.1571C82.9355 38.709 82.5486 38.1759 82.27 37.5733C81.9914 36.9706 81.8521 36.3061 81.8521 35.5876C81.8521 34.7995 82.0146 34.0732 82.3319 33.401C82.6492 32.7366 83.0826 32.1571 83.6321 31.6626C84.1816 31.1681 84.8162 30.7895 85.536 30.5191C86.2557 30.2487 87.0064 30.1096 87.8113 30.1096C88.384 30.1096 88.8716 30.1405 89.274 30.2023C89.6765 30.2641 90.0402 30.3491 90.3575 30.465C90.6749 30.5809 90.9922 30.7045 91.3017 30.8513L91.4333 33.4783H91.1547L89.8313 31.4772C89.4675 31.2531 89.1347 31.0909 88.8406 30.9981C88.5465 30.9054 88.2138 30.8591 87.8423 30.8591C87.107 30.8591 86.4492 31.0368 85.8533 31.3999C85.2573 31.7553 84.793 32.2575 84.4447 32.8911C84.0964 33.5247 83.9262 34.2587 83.9262 35.0854C83.9262 36.0512 84.1042 36.8779 84.4525 37.5578C84.8007 38.2454 85.2728 38.7708 85.861 39.1417C86.4492 39.5126 87.107 39.698 87.8268 39.698C88.0744 39.698 88.3376 39.6825 88.6007 39.6594C88.8716 39.6362 89.1425 39.5821 89.4056 39.5126V36.7774L87.9661 36.0975V35.8503H92.6097V36.0975L91.4256 36.8083V39.2653C91.1005 39.5357 90.7058 39.7598 90.2415 39.953C89.7771 40.1461 89.2973 40.2929 88.7942 40.4011C88.2911 40.5093 87.8113 40.5633 87.347 40.5633V40.5711Z" fill="white"/>
<path d="M101.184 40.4166V40.1693L102.538 39.5358V31.145L101.184 30.5114V30.2642H105.843V30.5114L104.566 31.145V34.7609H109.465V31.145L108.188 30.5114V30.2642H112.832V30.5114L111.508 31.145V39.5358L112.832 40.1693V40.4166H108.188V40.1693L109.465 39.5358V35.6031H104.566V39.5358L105.843 40.1693V40.4166H101.184Z" fill="white"/>
<path d="M123.503 40.4166V40.1693L125.183 39.5358V31.1141H122.737L121.522 33.5247H121.267V30.2642H131.134V33.5247H130.879L129.664 31.1141H127.226V39.5358L128.89 40.1693V40.4166H123.503Z" fill="white"/>
<path d="M139.718 23.9551H0V25.8603H139.718V23.9551Z" fill="white"/>
<path d="M11.7181 20.0344C9.57428 20.0344 7.68588 19.6094 6.07611 18.7672C4.45859 17.9251 3.20482 16.7816 2.3148 15.3368C1.42478 13.8919 0.983643 12.2617 0.983643 10.4305C0.983643 8.95481 1.29321 7.59498 1.90462 6.33559C2.51603 5.0762 3.35187 3.97906 4.40442 3.02099C5.45696 2.07066 6.65656 1.32893 7.99546 0.795812C9.33436 0.262695 10.7429 0 12.2134 0C13.2969 0 14.1946 0.0618106 14.9144 0.177706C15.6342 0.2936 16.2765 0.46358 16.8492 0.679917C17.4219 0.896254 17.9946 1.1435 18.5674 1.41392L18.9079 6.92279H18.3584L15.4407 2.35653C14.9299 2.03975 14.45 1.81569 14.0012 1.67661C13.5523 1.53754 13.0105 1.468 12.3759 1.468C11.1299 1.468 10.0077 1.82341 9.01704 2.54196C8.02641 3.26051 7.24474 4.27266 6.67203 5.57841C6.09933 6.88416 5.81297 8.39852 5.81297 10.1292C5.81297 11.8599 6.09159 13.3125 6.64108 14.5641C7.19057 15.8081 7.94128 16.7739 8.89322 17.446C9.84515 18.126 10.9132 18.4659 12.0973 18.4659C12.8557 18.4659 13.5368 18.3732 14.1405 18.1878C14.7441 18.0023 15.3246 17.7628 15.8741 17.4692L18.637 13.5211H19.1555L18.7299 18.4968C17.894 18.9681 16.8879 19.339 15.7115 19.6171C14.5352 19.8953 13.2118 20.0266 11.7413 20.0266L11.7181 20.0344Z" fill="white"/>
<path d="M34.3941 20.0345C32.8772 20.0345 31.4764 19.7872 30.1916 19.285C28.8992 18.7828 27.7847 18.0874 26.8328 17.1912C25.8808 16.2949 25.1379 15.2441 24.6116 14.0234C24.0776 12.8026 23.8145 11.4737 23.8145 10.0211C23.8145 8.56858 24.0776 7.23193 24.6116 6.01889C25.1456 4.79814 25.8808 3.74735 26.8328 2.8511C27.7847 1.95485 28.9069 1.25948 30.1916 0.757266C31.4764 0.255055 32.8772 0.0078125 34.3941 0.0078125C35.911 0.0078125 37.335 0.255055 38.6275 0.757266C39.92 1.25948 41.0344 1.95485 41.9864 2.8511C42.9383 3.74735 43.6813 4.79814 44.2075 6.01889C44.7415 7.23965 45.0047 8.56858 45.0047 10.0211C45.0047 11.4737 44.7415 12.8103 44.2075 14.0234C43.6735 15.2441 42.9383 16.2949 41.9864 17.1912C41.0344 18.0874 39.92 18.7828 38.6275 19.285C37.335 19.7872 35.9265 20.0345 34.3941 20.0345ZM34.8894 18.4969C35.911 18.4969 36.8165 18.1801 37.6059 17.5543C38.3953 16.9285 39.0067 16.0399 39.4479 14.9042C39.889 13.7684 40.1057 12.4317 40.1057 10.9019C40.1057 9.01671 39.8348 7.371 39.2931 5.95708C38.7513 4.54317 38.0161 3.44603 37.1028 2.6734C36.1819 1.90076 35.1525 1.51445 34.0071 1.51445C32.9855 1.51445 32.0723 1.8235 31.2751 2.44161C30.478 3.05971 29.8511 3.94051 29.3868 5.07628C28.9224 6.21205 28.698 7.54871 28.698 9.07852C28.698 10.9637 28.9766 12.6095 29.5261 14.0234C30.0756 15.4373 30.8263 16.5344 31.7627 17.3225C32.6992 18.1106 33.744 18.4969 34.8894 18.4969Z" fill="white"/>
<path d="M48.4794 19.733V19.2617L51.0876 18.0564V1.97788L48.4794 0.772575V0.30127H58.9662C61.11 0.30127 62.8049 0.726217 64.0432 1.58384C65.2815 2.44146 65.9006 3.60814 65.9006 5.09932C65.9006 6.181 65.5214 7.10816 64.7629 7.8808C64.0045 8.65343 63.0138 9.27153 61.791 9.71966L67.4639 18.0795L69.6696 19.254V19.7253H63.0138L57.3409 10.7164H55.7157V18.0177L58.0142 19.254V19.7253H48.4717L48.4794 19.733ZM56.9462 1.9238H55.7157V9.28699H57.1242C58.3935 9.28699 59.3918 8.94703 60.1271 8.25939C60.8623 7.57174 61.2338 6.68322 61.2338 5.57835C61.2338 4.4194 60.8701 3.52315 60.1426 2.88186C59.4151 2.24058 58.347 1.9238 56.9385 1.9238H56.9462Z" fill="white"/>
<path d="M75.0332 19.733V19.2617L78.2837 18.0564V1.9238H73.8955L71.4422 6.78366H70.9546V0.30127H90.2487V6.77593H89.7611L87.3077 1.91607H82.9196V18.0564L86.1701 19.2617V19.733H75.0332Z" fill="white"/>
<path d="M94.2346 19.733V19.2617L96.8428 18.0564V1.97788L94.2346 0.772575V0.30127H110.952V5.39292H110.464L108.196 1.91607H101.479V8.89294H106.2L107.918 6.35871H108.405V12.9879H107.918L106.2 10.5155H101.479V18.1105H108.932L111.323 13.7219H111.811V19.7253H94.2346V19.733Z" fill="white"/>
<path d="M116.199 19.733V19.2617L118.807 18.0564V2.00879L116.199 0.772575V0.30127H122.027L133.93 13.1965V1.94698L130.432 0.772575V0.30127H138.651V0.772575L136.074 1.97788V19.8798H134.17L120.951 5.68652V18.0564L124.449 19.2617V19.733H116.199Z" fill="white"/>
</g>
<defs>
<clipPath id="clip0_6442_718">
<rect width="140" height="40.6452" fill="white"/>
</clipPath>
</defs>
</svg>
